<svg xmlns="http://www.w3.org/2000/svg" aria-hidden="true" style="position:absolute;width:0;height:0;overflow:hidden">
  <defs>
    <symbol id="icon-Location" viewBox="0 0 32 32">
      <path d="M4.667 13.757c0-6.133 5.125-11.09 11.325-11.09 6.217 0 11.342 4.957 11.342 11.09 0 3.091-1.124 5.96-2.974 8.392a29.392 29.392 0 0 1-7.388 6.854c-.648.424-1.233.456-1.944 0a28.873 28.873 0 0 1-7.387-6.854c-1.851-2.432-2.974-5.301-2.974-8.392zm7.592.345c0 2.055 1.677 3.671 3.732 3.671 2.057 0 3.75-1.616 3.75-3.671 0-2.039-1.693-3.733-3.75-3.733-2.056 0-3.732 1.695-3.732 3.733z"/>
    </symbol>
    <symbol id="icon-Calling" viewBox="0 0 32 32">
      <path d="M19.141 2.677a1.087 1.087 0 0 0-.834.235 1.137 1.137 0 0 0-.43.779 1.147 1.147 0 0 0 1.009 1.266c4.322.482 7.682 3.849 8.168 8.185a1.142 1.142 0 1 0 2.272-.256c-.605-5.41-4.792-9.608-10.185-10.209zm.083 4.643c-.635-.117-1.218.288-1.339.907s.285 1.224.903 1.346a4.613 4.613 0 0 1 3.658 3.667v.001a1.145 1.145 0 0 0 1.341.907 1.153 1.153 0 0 0 .903-1.348 6.899 6.899 0 0 0-5.467-5.48zm2.109 12.801c.602-.347 1.282-.739 2.139-.557.777.164 3.425 2.313 4.15 3.058.475.488.74.991.781 1.495.072 1.976-2.613 4.232-3.102 4.513-.649.468-1.405.703-2.253.703-.867 0-1.834-.247-2.888-.738-5.72-2.388-14.459-10.954-16.77-16.63-.959-2.113-.965-3.856-.016-5.166.378-.614 2.536-3.182 4.468-3.101.514.044 1.013.308 1.503.787.741.726 2.836 3.382 2.998 4.161.179.866-.214 1.555-.563 2.16-.074.13-.175.284-.285.453-.417.642-.973 1.496-.776 2.041 1.409 3.459 4.663 6.477 8.124 7.895.535.195 1.389-.365 2.028-.784.167-.109.319-.209.447-.283l.014-.008z"/>
    </symbol>
    <symbol id="icon-Message" viewBox="0 0 32 32">
      <path d="M22.586 4c1.788 0 3.508.707 4.773 1.975a6.715 6.715 0 0 1 1.975 4.759v10.533c0 3.72-3.027 6.733-6.748 6.733H9.414c-3.721 0-6.747-3.013-6.747-6.733V10.734a6.733 6.733 0 0 1 6.747-6.733h13.172zm2.121 8.72.107-.107a1.03 1.03 0 0 0-.015-1.333 1.12 1.12 0 0 0-.705-.347 1.01 1.01 0 0 0-.748.267L17.334 16a2.09 2.09 0 0 1-2.667 0l-6-4.8c-.415-.307-.988-.267-1.333.093-.36.36-.4.933-.095 1.333l.175.173 6.067 4.733a4.19 4.19 0 0 0 2.6.907c.945 0 1.867-.32 2.612-.907l6.015-4.813z"/>
    </symbol>
    <symbol id="icon-footer-yt" viewBox="0 0 41 32">
      <path d="M34.911 3.229c1.602.44 2.864 1.735 3.292 3.38.778 2.982.778 9.203.778 9.203s0 6.221-.778 9.203c-.428 1.645-1.69 2.941-3.292 3.38-2.904.799-14.548.799-14.548.799s-11.644 0-14.548-.799c-1.602-.44-2.864-1.735-3.292-3.38-.778-2.982-.778-9.203-.778-9.203s0-6.221.778-9.203c.428-1.645 1.69-2.941 3.292-3.38 2.904-.799 14.548-.799 14.548-.799s11.644 0 14.548.799zm-18.038 7.346v11.636l9.309-5.818-9.309-5.818z"/>
    </symbol>
    <symbol id="icon-footer-twitter" viewBox="0 0 35 32">
      <path d="m16.409 8.695.073 1.208-1.221-.148c-4.444-.567-8.327-2.49-11.623-5.719L2.026 2.434l-.415 1.183c-.879 2.638-.317 5.423 1.514 7.297.977 1.035.757 1.183-.928.567-.586-.197-1.099-.345-1.148-.271-.171.173.415 2.416.879 3.303.635 1.233 1.929 2.441 3.345 3.155l1.196.567-1.416.025c-1.367 0-1.416.025-1.27.542.488 1.602 2.417 3.303 4.566 4.043l1.514.518-1.319.789A13.743 13.743 0 0 1 2 25.976c-1.099.025-2.002.123-2.002.197 0 .247 2.979 1.627 4.713 2.169 5.201 1.602 11.379.912 16.018-1.824 3.296-1.948 6.593-5.818 8.131-9.565.83-1.997 1.66-5.645 1.66-7.396 0-1.134.073-1.282 1.441-2.638.806-.789 1.563-1.652 1.709-1.898.244-.468.22-.468-1.026-.049-2.075.74-2.368.641-1.343-.468.757-.789 1.66-2.219 1.66-2.638 0-.074-.366.049-.781.271-.44.247-1.416.616-2.149.838l-1.319.419-1.196-.813c-.659-.444-1.587-.937-2.076-1.085-1.245-.345-3.15-.296-4.273.099-3.052 1.109-4.981 3.969-4.762 7.1z"/>
    </symbol>
    <symbol id="icon-footer-dribbble" viewBox="0 0 32 32">
      <path d="M30.629 16.518a14.62 14.62 0 0 1-1.152 5.685 14.318 14.318 0 0 1-1.349 2.481 14.77 14.77 0 0 1-1.784 2.162 15.027 15.027 0 0 1-2.164 1.783c-.782.526-1.618.979-2.485 1.347a14.689 14.689 0 0 1-11.39 0 14.743 14.743 0 0 1-2.486-1.347 14.911 14.911 0 0 1-2.163-1.783 14.593 14.593 0 0 1-3.989-7.388 14.764 14.764 0 0 1 0-5.881 14.557 14.557 0 0 1 3.989-7.389 14.72 14.72 0 0 1 4.649-3.131 14.484 14.484 0 0 1 2.749-.85 14.729 14.729 0 0 1 8.641.85 14.64 14.64 0 0 1 2.485 1.35 15.022 15.022 0 0 1 2.165 1.781 14.706 14.706 0 0 1 3.133 4.644 14.608 14.608 0 0 1 1.152 5.686zM10.669 5.234a12.494 12.494 0 0 0-6.895 8.712c.329.003 5.535.068 11.533-1.523a74.992 74.992 0 0 0-4.639-7.189zm5.674 9.11C9.911 16.267 3.738 16.129 3.517 16.12c-.004.134-.01.264-.01.398 0 3.205 1.211 6.126 3.201 8.336-.004-.007 3.415-6.063 10.156-8.24.163-.054.329-.103.493-.15a42.674 42.674 0 0 0-1.014-2.12zm7.907-7.189a12.443 12.443 0 0 0-8.251-3.111c-1.015 0-2 .123-2.944.349.187.251 2.534 3.36 4.67 7.277 4.714-1.765 6.493-4.47 6.524-4.515zM18.208 18.53c-.028.009-.056.017-.083.027-7.371 2.566-9.778 7.737-9.804 7.793a12.478 12.478 0 0 0 7.678 2.641c1.73 0 3.378-.352 4.877-.989-.185-1.09-.911-4.91-2.669-9.472zm4.772 8.333a12.479 12.479 0 0 0 5.353-8.369c-.257-.083-3.752-1.188-7.785-.542 1.639 4.497 2.304 8.159 2.432 8.911zm-4.293-13.334a38.827 38.827 0 0 1 1.1 2.455c4.292-.539 8.52.368 8.701.405a12.403 12.403 0 0 0-2.841-7.796c-.024.033-2.027 2.924-6.96 4.936z"/>
    </symbol>
    <symbol id="icon-footer-ig" viewBox="0 0 32 32">
      <path d="M16.001 1.909c-3.973 0-4.472.017-6.032.088-1.557.071-2.62.318-3.55.68-.962.374-1.778.873-2.591 1.687S2.514 5.993 2.14 6.955c-.363.93-.61 1.994-.68 3.55-.07 1.56-.088 2.059-.088 6.032s.018 4.47.088 6.03c.072 1.557.318 2.62.68 3.55.374.962.874 1.778 1.687 2.592s1.629 1.315 2.59 1.688c.931.362 1.994.608 3.551.68 1.56.071 2.059.088 6.031.088s4.47-.017 6.031-.088c1.557-.071 2.622-.318 3.552-.68.962-.374 1.777-.875 2.59-1.688s1.314-1.629 1.688-2.591c.36-.93.606-1.994.68-3.551.07-1.56.088-2.058.088-6.031s-.018-4.471-.088-6.032c-.073-1.557-.32-2.62-.68-3.55-.375-.962-.875-1.778-1.688-2.591s-1.627-1.314-2.59-1.687c-.933-.362-1.996-.608-3.554-.68-1.56-.071-2.057-.088-6.031-.088h.005zm-1.312 2.636h1.312c3.906 0 4.369.014 5.911.084 1.426.065 2.2.304 2.716.504.683.265 1.169.582 1.681 1.094s.829 1 1.095 1.682c.2.515.439 1.289.504 2.715.07 1.542.085 2.005.085 5.909s-.015 4.367-.085 5.909c-.065 1.426-.304 2.2-.504 2.715-.265.683-.583 1.169-1.095 1.68s-.998.829-1.681 1.094c-.515.201-1.29.439-2.716.504-1.542.07-2.005.085-5.911.085s-4.369-.015-5.911-.085c-1.426-.066-2.2-.304-2.716-.504-.683-.265-1.17-.582-1.682-1.094s-.829-.998-1.095-1.682c-.2-.515-.439-1.289-.504-2.715-.07-1.542-.084-2.005-.084-5.912s.014-4.367.084-5.909c.065-1.426.304-2.2.504-2.716.265-.683.583-1.17 1.095-1.682s1-.829 1.682-1.095c.516-.201 1.29-.439 2.716-.504 1.349-.061 1.872-.079 4.599-.082v.004zm9.121 2.429a1.756 1.756 0 1 0 0 3.511 1.756 1.756 0 0 0 0-3.511zm-7.809 2.052a7.512 7.512 0 1 0 0 15.025 7.512 7.512 0 0 0 0-15.025zm0 2.636a4.876 4.876 0 1 1 0 9.752 4.876 4.876 0 0 1 0-9.752z"/>
    </symbol>
    <symbol id="icon-instagram" viewBox="0 0 32 32">
      <path d="M28.846 15.998h-.048c0-1.298.025-2.597-.007-3.894-.031-1.224-.077-2.451-.201-3.668-.119-1.164-.529-2.237-1.315-3.142-1.099-1.266-2.55-1.799-4.157-1.897-1.828-.112-3.663-.139-5.495-.161a169.122 169.122 0 0 0-5.471.022 44.896 44.896 0 0 0-3.668.201c-1.164.119-2.237.529-3.142 1.315-1.266 1.099-1.799 2.55-1.897 4.157-.112 1.828-.139 3.663-.161 5.495-.022 1.823-.015 3.648.022 5.471.025 1.224.077 2.451.201 3.668.119 1.164.529 2.237 1.315 3.142 1.099 1.266 2.55 1.799 4.157 1.897 1.828.112 3.663.139 5.495.161 1.823.022 3.648.023 5.471-.024 1.346-.035 2.705-.06 4.031-.268 2.265-.356 3.798-1.669 4.408-3.917.198-.728.301-1.498.329-2.254.078-2.099.093-4.201.134-6.302zM.464 21.133V10.867c.017-.097.047-.194.05-.292.036-1.205.09-2.407.385-3.583.666-2.654 2.205-4.585 4.736-5.679C7.008.719 8.466.547 9.944.487c.324-.013.648-.046.971-.07h10.266c.097.017.194.047.292.05 1.205.036 2.407.09 3.584.385 2.654.666 4.585 2.205 5.679 4.736.594 1.373.766 2.831.826 4.309.013.324.046.648.07.971v10.266c-.017.097-.047.194-.05.292-.036 1.205-.09 2.407-.385 3.583-.666 2.654-2.205 4.585-4.736 5.679-1.372.594-2.831.766-4.309.826-.324.013-.647.046-.971.07H10.915c-.097-.017-.194-.047-.292-.05-1.205-.036-2.407-.09-3.583-.385-2.654-.666-4.585-2.205-5.679-4.736-.593-1.372-.766-2.831-.826-4.309-.013-.324-.046-.647-.07-.971z"/>
      <path d="M16.044 21.184c2.837 0 5.186-2.321 5.189-5.126.003-2.89-2.299-5.241-5.134-5.243-2.9-.002-5.235 2.304-5.235 5.172s2.321 5.197 5.18 5.197zm8.013-5.177a8.004 8.004 0 0 1-8.031 8.002c-4.415-.006-7.99-3.595-7.987-8.016a8.003 8.003 0 0 1 8.031-8.002c4.416.007 7.989 3.593 7.987 8.016zM24.35 5.806c1.047-.005 1.89.829 1.892 1.871s-.838 1.887-1.879 1.889a1.893 1.893 0 0 1-1.881-1.891 1.884 1.884 0 0 1 1.868-1.869z"/>
    </symbol>
    <symbol id="icon-youtube" viewBox="0 0 27 32">
      <path d="M22.04 12.253h-1.642v-.957c-.622.719-1.15 1.082-1.725 1.082-.505 0-.855-.24-1.03-.673-.107-.263-.182-.675-.182-1.279V3.463h1.642v7.138c.038.244.141.334.35.334.314 0 .598-.275.946-.769V3.464h1.642v8.791zM14.611 9.642c.086.87-.182 1.302-.691 1.302s-.777-.432-.691-1.302V6.16c-.086-.87.181-1.278.691-1.278s.778.408.692 1.278l-.001 3.482zm1.641-3.307c0-.94-.187-1.645-.518-2.089-.437-.601-1.123-.847-1.814-.847-.782 0-1.378.246-1.814.847-.336.444-.517 1.157-.517 2.097l-.002 3.126c0 .934.16 1.58.497 2.019.437.599 1.145.917 1.836.917s1.412-.318 1.849-.917c.331-.44.484-1.085.484-2.019V6.335zM9.772 7.466v4.787H8.044V7.466S6.253 1.597 5.884.503h1.814l1.213 4.585L10.118.503h1.814l-2.16 6.963zM16.615 20.719c-.258 0-.553.137-.814.397l-.002 5.279c.262.263.558.397.816.397.451 0 .655-.334.655-1.204v-3.743c0-.87-.204-1.126-.655-1.126zM23.058 21.765c0-.804-.206-1.046-.725-1.046-.523 0-.744.222-.744 1.035v.963l1.469-.002v-.95z"/>
      <path d="M22.348 26.792c.385 0 .61-.211.699-.632.014-.086.012-.462.012-1.094H24.7v.247c0 .508-.042.867-.056 1.025a2.261 2.261 0 0 1-.366.944c-.433.632-1.075.943-1.892.943s-1.441-.297-1.893-.891c-.332-.435-.545-1.082-.545-2.007V22.28c0-.93.194-1.648.526-2.088.452-.595 1.075-.91 1.874-.91.785 0 1.408.315 1.846.91.327.44.509 1.12.509 2.05v1.779H21.59v1.563c-.006.803.221 1.208.758 1.208zm-3.438-1.291c0 .804-.068 1.372-.173 1.741-.209.647-.664.983-1.287.983-.556 0-1.126-.337-1.649-.989l-.002.876h-1.555V16.448h1.555l-.002 3.803c.505-.626 1.077-.983 1.653-.983.623 0 1.041.363 1.25 1.014.105.35.209.913.209 1.737v3.482zm-5.961 2.611h-1.642v-.957c-.622.719-1.15 1.082-1.725 1.082-.505 0-.855-.24-1.03-.673-.107-.263-.182-.675-.182-1.279v-6.877h1.642v7.05c.038.244.141.334.35.334.314 0 .598-.275.946-.769v-6.615h1.642v8.704zm-6.22 0H5.001v-10.01H3.187V16.45l5.443-.002v1.654H6.729v10.01zm19.875-10.801s-.252-1.783-1.026-2.568c-.981-1.03-2.081-1.036-2.585-1.096-3.61-.262-9.025-.262-9.025-.262h-.011s-5.415 0-9.025.262c-.504.06-1.604.065-2.585 1.096-.773.785-1.025 2.568-1.025 2.568s-.258 2.094-.258 4.188v1.963c0 2.094.258 4.188.258 4.188s.252 1.783 1.025 2.568c.981 1.031 2.271.998 2.845 1.106 2.064.199 8.771.26 8.771.26s5.421-.008 9.031-.27c.504-.06 1.604-.065 2.585-1.096.773-.785 1.026-2.568 1.026-2.568s.258-2.094.258-4.188v-1.963c0-2.094-.258-4.188-.258-4.188z"/>
    </symbol>
    <symbol id="icon-facebook" viewBox="0 0 17 32">
      <path d="M11.195 31.527V17.335h4.582l.686-5.531h-5.268V8.273c0-1.601.428-2.693 2.636-2.693l2.817-.001V.632c-.487-.067-2.16-.218-4.105-.218-4.061 0-6.842 2.577-6.842 7.311v4.079H1.107v5.531h4.594v14.192h5.494z"/>
    </symbol>
    <symbol id="icon-Slider-tabs" viewBox="0 0 65 32">
      <path fill="#fff" d="M17.455 16.208a2.494 2.494 0 1 1-4.988 0 2.494 2.494 0 0 1 4.988 0zM25.766 16.208a2.494 2.494 0 1 1-4.988 0 2.494 2.494 0 0 1 4.988 0z" style="fill:var(--color1, #fff)"/>
      <path fill="#e43071" d="M36.156 16a3.532 3.532 0 1 1-7.064 0 3.532 3.532 0 0 1 7.064 0z" style="fill:var(--color2, #e43071)"/>
      <path fill="#fff" d="M44.468 16.208a2.494 2.494 0 1 1-4.987 0 2.494 2.494 0 0 1 4.987 0zM52.779 16.208a2.494 2.494 0 1 1-4.987 0 2.494 2.494 0 0 1 4.987 0z" style="fill:var(--color1, #fff)"/>
    </symbol>
    <symbol id="icon-Search-Icon" viewBox="0 0 32 32">
      <path stroke-width="3.765" d="M30.105 11.561c0 5.345-4.343 9.678-9.7 9.678s-9.7-4.333-9.7-9.678c0-5.345 4.343-9.678 9.7-9.678s9.7 4.333 9.7 9.678z"/>
      <path d="m11.712 18.281-9.145 9.125a1.289 1.289 0 0 0 0 1.825 1.295 1.295 0 0 0 1.829 0l9.145-9.125a1.289 1.289 0 0 0 0-1.825 1.295 1.295 0 0 0-1.829 0z"/>
    </symbol>
  </defs>
</svg>
